<svg xmlns="http://www.w3.org/2000/svg" width="1200" height="200">
      <text x="0" y="20" fill="#adbac7" font-size="10">
        Jan
      </text>
    
    <rect
      x="0"
      y="30"
      width="14"
      height="14"
      rx="3"
      fill="#2d333b"
    />
  
    <rect
      x="0"
      y="48"
      width="14"
      height="14"
      rx="3"
      fill="#f1e05a"
    />
  
    <rect
      x="0"
      y="66"
      width="14"
      height="14"
      rx="3"
      fill="#2d333b"
    />
  
    <rect
      x="0"
      y="84"
      width="14"
      height="14"
      rx="3"
      fill="#2d333b"
    />
  
    <rect
      x="0"
      y="102"
      width="14"
      height="14"
      rx="3"
      fill="#2d333b"
    />
  
    <rect
      x="0"
      y="120"
      width="14"
      height="14"
      rx="3"
      fill="#2d333b"
    />
  
    <rect
      x="0"
      y="138"
      width="14"
      height="14"
      rx="3"
      fill="#2d333b"
    />
  
    <rect
      x="18"
      y="30"
      width="14"
      height="14"
      rx="3"
      fill="#2d333b"
    />
  
    <rect
      x="18"
      y="48"
      width="14"
      height="14"
      rx="3"
      fill="#2d333b"
    />
  
    <rect
      x="18"
      y="66"
      width="14"
      height="14"
      rx="3"
      fill="#2d333b"
    />
  
    <rect
      x="18"
      y="84"
      width="14"
      height="14"
      rx="3"
      fill="#2d333b"
    />
  
    <rect
      x="18"
      y="102"
      width="14"
      height="14"
      rx="3"
      fill="#2d333b"
    />
  
    <rect
      x="18"
      y="120"
      width="14"
      height="14"
      rx="3"
      fill="#2d333b"
    />
  
    <rect
      x="18"
      y="138"
      width="14"
      height="14"
      rx="3"
      fill="#2d333b"
    />
  
    <rect
      x="36"
      y="30"
      width="14"
      height="14"
      rx="3"
      fill="#2d333b"
    />
  
    <rect
      x="36"
      y="48"
      width="14"
      height="14"
      rx="3"
      fill="#2d333b"
    />
  
    <rect
      x="36"
      y="66"
      width="14"
      height="14"
      rx="3"
      fill="#2d333b"
    />
  
    <rect
      x="36"
      y="84"
      width="14"
      height="14"
      rx="3"
      fill="#2d333b"
    />
  
    <rect
      x="36"
      y="102"
      width="14"
      height="14"
      rx="3"
      fill="#2d333b"
    />
  
    <rect
      x="36"
      y="120"
      width="14"
      height="14"
      rx="3"
      fill="#2d333b"
    />
  
    <rect
      x="36"
      y="138"
      width="14"
      height="14"
      rx="3"
      fill="#2d333b"
    />
  
      <text x="54" y="20" fill="#adbac7" font-size="10">
        Feb
      </text>
    
    <rect
      x="54"
      y="30"
      width="14"
      height="14"
      rx="3"
      fill="#2d333b"
    />
  
    <rect
      x="54"
      y="48"
      width="14"
      height="14"
      rx="3"
      fill="#2d333b"
    />
  
    <rect
      x="54"
      y="66"
      width="14"
      height="14"
      rx="3"
      fill="#2d333b"
    />
  
    <rect
      x="54"
      y="84"
      width="14"
      height="14"
      rx="3"
      fill="#2d333b"
    />
  
    <rect
      x="54"
      y="102"
      width="14"
      height="14"
      rx="3"
      fill="#2d333b"
    />
  
    <rect
      x="54"
      y="120"
      width="14"
      height="14"
      rx="3"
      fill="#2d333b"
    />
  
    <rect
      x="54"
      y="138"
      width="14"
      height="14"
      rx="3"
      fill="#2d333b"
    />
  
    <rect
      x="72"
      y="30"
      width="14"
      height="14"
      rx="3"
      fill="#2d333b"
    />
  
    <rect
      x="72"
      y="48"
      width="14"
      height="14"
      rx="3"
      fill="#2d333b"
    />
  
    <rect
      x="72"
      y="66"
      width="14"
      height="14"
      rx="3"
      fill="#2d333b"
    />
  
    <rect
      x="72"
      y="84"
      width="14"
      height="14"
      rx="3"
      fill="#2d333b"
    />
  
    <rect
      x="72"
      y="102"
      width="14"
      height="14"
      rx="3"
      fill="#2d333b"
    />
  
    <rect
      x="72"
      y="120"
      width="14"
      height="14"
      rx="3"
      fill="#2d333b"
    />
  
    <rect
      x="72"
      y="138"
      width="14"
      height="14"
      rx="3"
      fill="#2d333b"
    />
  
    <rect
      x="90"
      y="30"
      width="14"
      height="14"
      rx="3"
      fill="#2d333b"
    />
  
    <rect
      x="90"
      y="48"
      width="14"
      height="14"
      rx="3"
      fill="#2d333b"
    />
  
    <rect
      x="90"
      y="66"
      width="14"
      height="14"
      rx="3"
      fill="#2d333b"
    />
  
    <rect
      x="90"
      y="84"
      width="14"
      height="14"
      rx="3"
      fill="#2d333b"
    />
  
    <rect
      x="90"
      y="102"
      width="14"
      height="14"
      rx="3"
      fill="#2d333b"
    />
  
    <rect
      x="90"
      y="120"
      width="14"
      height="14"
      rx="3"
      fill="#2d333b"
    />
  
    <rect
      x="90"
      y="138"
      width="14"
      height="14"
      rx="3"
      fill="#2d333b"
    />
  
    <rect
      x="108"
      y="30"
      width="14"
      height="14"
      rx="3"
      fill="#2d333b"
    />
  
    <rect
      x="108"
      y="48"
      width="14"
      height="14"
      rx="3"
      fill="#2d333b"
    />
  
    <rect
      x="108"
      y="66"
      width="14"
      height="14"
      rx="3"
      fill="#2d333b"
    />
  
    <rect
      x="108"
      y="84"
      width="14"
      height="14"
      rx="3"
      fill="#2d333b"
    />
  
    <rect
      x="108"
      y="102"
      width="14"
      height="14"
      rx="3"
      fill="#2d333b"
    />
  
    <rect
      x="108"
      y="120"
      width="14"
      height="14"
      rx="3"
      fill="#2d333b"
    />
  
    <rect
      x="108"
      y="138"
      width="14"
      height="14"
      rx="3"
      fill="#2d333b"
    />
  
      <text x="126" y="20" fill="#adbac7" font-size="10">
        Mar
      </text>
    
    <rect
      x="126"
      y="30"
      width="14"
      height="14"
      rx="3"
      fill="#2d333b"
    />
  
    <rect
      x="126"
      y="48"
      width="14"
      height="14"
      rx="3"
      fill="#2d333b"
    />
  
    <rect
      x="126"
      y="66"
      width="14"
      height="14"
      rx="3"
      fill="#2d333b"
    />
  
    <rect
      x="126"
      y="84"
      width="14"
      height="14"
      rx="3"
      fill="#2d333b"
    />
  
    <rect
      x="126"
      y="102"
      width="14"
      height="14"
      rx="3"
      fill="#2d333b"
    />
  
    <rect
      x="126"
      y="120"
      width="14"
      height="14"
      rx="3"
      fill="#2d333b"
    />
  
    <rect
      x="126"
      y="138"
      width="14"
      height="14"
      rx="3"
      fill="#2d333b"
    />
  
    <rect
      x="144"
      y="30"
      width="14"
      height="14"
      rx="3"
      fill="#2d333b"
    />
  
    <rect
      x="144"
      y="48"
      width="14"
      height="14"
      rx="3"
      fill="#2d333b"
    />
  
    <rect
      x="144"
      y="66"
      width="14"
      height="14"
      rx="3"
      fill="#2d333b"
    />
  
    <rect
      x="144"
      y="84"
      width="14"
      height="14"
      rx="3"
      fill="#2d333b"
    />
  
    <rect
      x="144"
      y="102"
      width="14"
      height="14"
      rx="3"
      fill="#2d333b"
    />
  
    <rect
      x="144"
      y="120"
      width="14"
      height="14"
      rx="3"
      fill="#2d333b"
    />
  
    <rect
      x="144"
      y="138"
      width="14"
      height="14"
      rx="3"
      fill="#2d333b"
    />
  
    <rect
      x="162"
      y="30"
      width="14"
      height="14"
      rx="3"
      fill="#2d333b"
    />
  
    <rect
      x="162"
      y="48"
      width="14"
      height="14"
      rx="3"
      fill="#2d333b"
    />
  
    <rect
      x="162"
      y="66"
      width="14"
      height="14"
      rx="3"
      fill="#2d333b"
    />
  
    <rect
      x="162"
      y="84"
      width="14"
      height="14"
      rx="3"
      fill="#2d333b"
    />
  
    <rect
      x="162"
      y="102"
      width="14"
      height="14"
      rx="3"
      fill="#2d333b"
    />
  
    <rect
      x="162"
      y="120"
      width="14"
      height="14"
      rx="3"
      fill="#2d333b"
    />
  
    <rect
      x="162"
      y="138"
      width="14"
      height="14"
      rx="3"
      fill="#2d333b"
    />
  
    <rect
      x="180"
      y="30"
      width="14"
      height="14"
      rx="3"
      fill="#2d333b"
    />
  
    <rect
      x="180"
      y="48"
      width="14"
      height="14"
      rx="3"
      fill="#2d333b"
    />
  
    <rect
      x="180"
      y="66"
      width="14"
      height="14"
      rx="3"
      fill="#2d333b"
    />
  
    <rect
      x="180"
      y="84"
      width="14"
      height="14"
      rx="3"
      fill="#2d333b"
    />
  
    <rect
      x="180"
      y="102"
      width="14"
      height="14"
      rx="3"
      fill="#2d333b"
    />
  
    <rect
      x="180"
      y="120"
      width="14"
      height="14"
      rx="3"
      fill="#2d333b"
    />
  
    <rect
      x="180"
      y="138"
      width="14"
      height="14"
      rx="3"
      fill="#2d333b"
    />
  
    <rect
      x="198"
      y="30"
      width="14"
      height="14"
      rx="3"
      fill="#2d333b"
    />
  
    <rect
      x="198"
      y="48"
      width="14"
      height="14"
      rx="3"
      fill="#2d333b"
    />
  
    <rect
      x="198"
      y="66"
      width="14"
      height="14"
      rx="3"
      fill="#2d333b"
    />
  
    <rect
      x="198"
      y="84"
      width="14"
      height="14"
      rx="3"
      fill="#2d333b"
    />
  
    <rect
      x="198"
      y="102"
      width="14"
      height="14"
      rx="3"
      fill="#2d333b"
    />
  
    <rect
      x="198"
      y="120"
      width="14"
      height="14"
      rx="3"
      fill="#2d333b"
    />
  
    <rect
      x="198"
      y="138"
      width="14"
      height="14"
      rx="3"
      fill="#2d333b"
    />
  
      <text x="216" y="20" fill="#adbac7" font-size="10">
        Apr
      </text>
    
    <rect
      x="216"
      y="30"
      width="14"
      height="14"
      rx="3"
      fill="#2d333b"
    />
  
    <rect
      x="216"
      y="48"
      width="14"
      height="14"
      rx="3"
      fill="#2d333b"
    />
  
    <rect
      x="216"
      y="66"
      width="14"
      height="14"
      rx="3"
      fill="#2d333b"
    />
  
    <rect
      x="216"
      y="84"
      width="14"
      height="14"
      rx="3"
      fill="#2d333b"
    />
  
    <rect
      x="216"
      y="102"
      width="14"
      height="14"
      rx="3"
      fill="#2d333b"
    />
  
    <rect
      x="216"
      y="120"
      width="14"
      height="14"
      rx="3"
      fill="#2d333b"
    />
  
    <rect
      x="216"
      y="138"
      width="14"
      height="14"
      rx="3"
      fill="#2d333b"
    />
  
    <rect
      x="234"
      y="30"
      width="14"
      height="14"
      rx="3"
      fill="#2d333b"
    />
  
    <rect
      x="234"
      y="48"
      width="14"
      height="14"
      rx="3"
      fill="#2d333b"
    />
  
    <rect
      x="234"
      y="66"
      width="14"
      height="14"
      rx="3"
      fill="#2d333b"
    />
  
    <rect
      x="234"
      y="84"
      width="14"
      height="14"
      rx="3"
      fill="#2d333b"
    />
  
    <rect
      x="234"
      y="102"
      width="14"
      height="14"
      rx="3"
      fill="#2d333b"
    />
  
    <rect
      x="234"
      y="120"
      width="14"
      height="14"
      rx="3"
      fill="#2d333b"
    />
  
    <rect
      x="234"
      y="138"
      width="14"
      height="14"
      rx="3"
      fill="#2d333b"
    />
  
    <rect
      x="252"
      y="30"
      width="14"
      height="14"
      rx="3"
      fill="#2d333b"
    />
  
    <rect
      x="252"
      y="48"
      width="14"
      height="14"
      rx="3"
      fill="#2d333b"
    />
  
    <rect
      x="252"
      y="66"
      width="14"
      height="14"
      rx="3"
      fill="#2d333b"
    />
  
    <rect
      x="252"
      y="84"
      width="14"
      height="14"
      rx="3"
      fill="#2d333b"
    />
  
    <rect
      x="252"
      y="102"
      width="14"
      height="14"
      rx="3"
      fill="#2d333b"
    />
  
    <rect
      x="252"
      y="120"
      width="14"
      height="14"
      rx="3"
      fill="#2d333b"
    />
  
    <rect
      x="252"
      y="138"
      width="14"
      height="14"
      rx="3"
      fill="#2d333b"
    />
  
    <rect
      x="270"
      y="30"
      width="14"
      height="14"
      rx="3"
      fill="#2d333b"
    />
  
    <rect
      x="270"
      y="48"
      width="14"
      height="14"
      rx="3"
      fill="#2d333b"
    />
  
    <rect
      x="270"
      y="66"
      width="14"
      height="14"
      rx="3"
      fill="#2d333b"
    />
  
    <rect
      x="270"
      y="84"
      width="14"
      height="14"
      rx="3"
      fill="#2d333b"
    />
  
    <rect
      x="270"
      y="102"
      width="14"
      height="14"
      rx="3"
      fill="#2d333b"
    />
  
    <rect
      x="270"
      y="120"
      width="14"
      height="14"
      rx="3"
      fill="#2d333b"
    />
  
    <rect
      x="270"
      y="138"
      width="14"
      height="14"
      rx="3"
      fill="#2d333b"
    />
  
      <text x="288" y="20" fill="#adbac7" font-size="10">
        May
      </text>
    
    <rect
      x="288"
      y="30"
      width="14"
      height="14"
      rx="3"
      fill="#2d333b"
    />
  
    <rect
      x="288"
      y="48"
      width="14"
      height="14"
      rx="3"
      fill="#2d333b"
    />
  
    <rect
      x="288"
      y="66"
      width="14"
      height="14"
      rx="3"
      fill="#2d333b"
    />
  
    <rect
      x="288"
      y="84"
      width="14"
      height="14"
      rx="3"
      fill="#2d333b"
    />
  
    <rect
      x="288"
      y="102"
      width="14"
      height="14"
      rx="3"
      fill="#2d333b"
    />
  
    <rect
      x="288"
      y="120"
      width="14"
      height="14"
      rx="3"
      fill="#2d333b"
    />
  
    <rect
      x="288"
      y="138"
      width="14"
      height="14"
      rx="3"
      fill="#2d333b"
    />
  
    <rect
      x="306"
      y="30"
      width="14"
      height="14"
      rx="3"
      fill="#2d333b"
    />
  
    <rect
      x="306"
      y="48"
      width="14"
      height="14"
      rx="3"
      fill="#2d333b"
    />
  
    <rect
      x="306"
      y="66"
      width="14"
      height="14"
      rx="3"
      fill="#2d333b"
    />
  
    <rect
      x="306"
      y="84"
      width="14"
      height="14"
      rx="3"
      fill="#2d333b"
    />
  
    <rect
      x="306"
      y="102"
      width="14"
      height="14"
      rx="3"
      fill="#2d333b"
    />
  
    <rect
      x="306"
      y="120"
      width="14"
      height="14"
      rx="3"
      fill="#2d333b"
    />
  
    <rect
      x="306"
      y="138"
      width="14"
      height="14"
      rx="3"
      fill="#2d333b"
    />
  
    <rect
      x="324"
      y="30"
      width="14"
      height="14"
      rx="3"
      fill="#2d333b"
    />
  
    <rect
      x="324"
      y="48"
      width="14"
      height="14"
      rx="3"
      fill="#2d333b"
    />
  
    <rect
      x="324"
      y="66"
      width="14"
      height="14"
      rx="3"
      fill="#2d333b"
    />
  
    <rect
      x="324"
      y="84"
      width="14"
      height="14"
      rx="3"
      fill="#2d333b"
    />
  
    <rect
      x="324"
      y="102"
      width="14"
      height="14"
      rx="3"
      fill="#2d333b"
    />
  
    <rect
      x="324"
      y="120"
      width="14"
      height="14"
      rx="3"
      fill="#2d333b"
    />
  
    <rect
      x="324"
      y="138"
      width="14"
      height="14"
      rx="3"
      fill="#2d333b"
    />
  
    <rect
      x="342"
      y="30"
      width="14"
      height="14"
      rx="3"
      fill="#2d333b"
    />
  
    <rect
      x="342"
      y="48"
      width="14"
      height="14"
      rx="3"
      fill="#2d333b"
    />
  
    <rect
      x="342"
      y="66"
      width="14"
      height="14"
      rx="3"
      fill="#2d333b"
    />
  
    <rect
      x="342"
      y="84"
      width="14"
      height="14"
      rx="3"
      fill="#2d333b"
    />
  
    <rect
      x="342"
      y="102"
      width="14"
      height="14"
      rx="3"
      fill="#2d333b"
    />
  
    <rect
      x="342"
      y="120"
      width="14"
      height="14"
      rx="3"
      fill="#2d333b"
    />
  
    <rect
      x="342"
      y="138"
      width="14"
      height="14"
      rx="3"
      fill="#2d333b"
    />
  
    <rect
      x="360"
      y="30"
      width="14"
      height="14"
      rx="3"
      fill="#2d333b"
    />
  
    <rect
      x="360"
      y="48"
      width="14"
      height="14"
      rx="3"
      fill="#2d333b"
    />
  
    <rect
      x="360"
      y="66"
      width="14"
      height="14"
      rx="3"
      fill="#2d333b"
    />
  
    <rect
      x="360"
      y="84"
      width="14"
      height="14"
      rx="3"
      fill="#2d333b"
    />
  
    <rect
      x="360"
      y="102"
      width="14"
      height="14"
      rx="3"
      fill="#2d333b"
    />
  
    <rect
      x="360"
      y="120"
      width="14"
      height="14"
      rx="3"
      fill="#2d333b"
    />
  
    <rect
      x="360"
      y="138"
      width="14"
      height="14"
      rx="3"
      fill="#2d333b"
    />
  
      <text x="378" y="20" fill="#adbac7" font-size="10">
        Jun
      </text>
    
    <rect
      x="378"
      y="30"
      width="14"
      height="14"
      rx="3"
      fill="#2d333b"
    />
  
    <rect
      x="378"
      y="48"
      width="14"
      height="14"
      rx="3"
      fill="#2d333b"
    />
  
    <rect
      x="378"
      y="66"
      width="14"
      height="14"
      rx="3"
      fill="#2d333b"
    />
  
    <rect
      x="378"
      y="84"
      width="14"
      height="14"
      rx="3"
      fill="#2d333b"
    />
  
    <rect
      x="378"
      y="102"
      width="14"
      height="14"
      rx="3"
      fill="#2d333b"
    />
  
    <rect
      x="378"
      y="120"
      width="14"
      height="14"
      rx="3"
      fill="#2d333b"
    />
  
    <rect
      x="378"
      y="138"
      width="14"
      height="14"
      rx="3"
      fill="#2d333b"
    />
  
    <rect
      x="396"
      y="30"
      width="14"
      height="14"
      rx="3"
      fill="#2d333b"
    />
  
    <rect
      x="396"
      y="48"
      width="14"
      height="14"
      rx="3"
      fill="#2d333b"
    />
  
    <rect
      x="396"
      y="66"
      width="14"
      height="14"
      rx="3"
      fill="#2d333b"
    />
  
    <rect
      x="396"
      y="84"
      width="14"
      height="14"
      rx="3"
      fill="#2d333b"
    />
  
    <rect
      x="396"
      y="102"
      width="14"
      height="14"
      rx="3"
      fill="#2d333b"
    />
  
    <rect
      x="396"
      y="120"
      width="14"
      height="14"
      rx="3"
      fill="#2d333b"
    />
  
    <rect
      x="396"
      y="138"
      width="14"
      height="14"
      rx="3"
      fill="#2d333b"
    />
  
    <rect
      x="414"
      y="30"
      width="14"
      height="14"
      rx="3"
      fill="#2d333b"
    />
  
    <rect
      x="414"
      y="48"
      width="14"
      height="14"
      rx="3"
      fill="#2d333b"
    />
  
    <rect
      x="414"
      y="66"
      width="14"
      height="14"
      rx="3"
      fill="#2d333b"
    />
  
    <rect
      x="414"
      y="84"
      width="14"
      height="14"
      rx="3"
      fill="#2d333b"
    />
  
    <rect
      x="414"
      y="102"
      width="14"
      height="14"
      rx="3"
      fill="#2d333b"
    />
  
    <rect
      x="414"
      y="120"
      width="14"
      height="14"
      rx="3"
      fill="#2d333b"
    />
  
    <rect
      x="414"
      y="138"
      width="14"
      height="14"
      rx="3"
      fill="#2d333b"
    />
  
    <rect
      x="432"
      y="30"
      width="14"
      height="14"
      rx="3"
      fill="#2d333b"
    />
  
    <rect
      x="432"
      y="48"
      width="14"
      height="14"
      rx="3"
      fill="#2d333b"
    />
  
    <rect
      x="432"
      y="66"
      width="14"
      height="14"
      rx="3"
      fill="#2d333b"
    />
  
    <rect
      x="432"
      y="84"
      width="14"
      height="14"
      rx="3"
      fill="#2d333b"
    />
  
    <rect
      x="432"
      y="102"
      width="14"
      height="14"
      rx="3"
      fill="#2d333b"
    />
  
    <rect
      x="432"
      y="120"
      width="14"
      height="14"
      rx="3"
      fill="#2d333b"
    />
  
    <rect
      x="432"
      y="138"
      width="14"
      height="14"
      rx="3"
      fill="#2d333b"
    />
  
      <text x="450" y="20" fill="#adbac7" font-size="10">
        Jul
      </text>
    
    <rect
      x="450"
      y="30"
      width="14"
      height="14"
      rx="3"
      fill="#2d333b"
    />
  
    <rect
      x="450"
      y="48"
      width="14"
      height="14"
      rx="3"
      fill="#2d333b"
    />
  
    <rect
      x="450"
      y="66"
      width="14"
      height="14"
      rx="3"
      fill="#2d333b"
    />
  
    <rect
      x="450"
      y="84"
      width="14"
      height="14"
      rx="3"
      fill="#2d333b"
    />
  
    <rect
      x="450"
      y="102"
      width="14"
      height="14"
      rx="3"
      fill="#2d333b"
    />
  
    <rect
      x="450"
      y="120"
      width="14"
      height="14"
      rx="3"
      fill="#2d333b"
    />
  
    <rect
      x="450"
      y="138"
      width="14"
      height="14"
      rx="3"
      fill="#2d333b"
    />
  
    <rect
      x="468"
      y="30"
      width="14"
      height="14"
      rx="3"
      fill="#2d333b"
    />
  
    <rect
      x="468"
      y="48"
      width="14"
      height="14"
      rx="3"
      fill="#2d333b"
    />
  
    <rect
      x="468"
      y="66"
      width="14"
      height="14"
      rx="3"
      fill="#2d333b"
    />
  
    <rect
      x="468"
      y="84"
      width="14"
      height="14"
      rx="3"
      fill="#2d333b"
    />
  
    <rect
      x="468"
      y="102"
      width="14"
      height="14"
      rx="3"
      fill="#2d333b"
    />
  
    <rect
      x="468"
      y="120"
      width="14"
      height="14"
      rx="3"
      fill="#2d333b"
    />
  
    <rect
      x="468"
      y="138"
      width="14"
      height="14"
      rx="3"
      fill="#2d333b"
    />
  
    <rect
      x="486"
      y="30"
      width="14"
      height="14"
      rx="3"
      fill="#2d333b"
    />
  
    <rect
      x="486"
      y="48"
      width="14"
      height="14"
      rx="3"
      fill="#2d333b"
    />
  
    <rect
      x="486"
      y="66"
      width="14"
      height="14"
      rx="3"
      fill="#2d333b"
    />
  
    <rect
      x="486"
      y="84"
      width="14"
      height="14"
      rx="3"
      fill="#2d333b"
    />
  
    <rect
      x="486"
      y="102"
      width="14"
      height="14"
      rx="3"
      fill="#2d333b"
    />
  
    <rect
      x="486"
      y="120"
      width="14"
      height="14"
      rx="3"
      fill="#2d333b"
    />
  
    <rect
      x="486"
      y="138"
      width="14"
      height="14"
      rx="3"
      fill="#2d333b"
    />
  
    <rect
      x="504"
      y="30"
      width="14"
      height="14"
      rx="3"
      fill="#2d333b"
    />
  
    <rect
      x="504"
      y="48"
      width="14"
      height="14"
      rx="3"
      fill="#2d333b"
    />
  
    <rect
      x="504"
      y="66"
      width="14"
      height="14"
      rx="3"
      fill="#2d333b"
    />
  
    <rect
      x="504"
      y="84"
      width="14"
      height="14"
      rx="3"
      fill="#2d333b"
    />
  
    <rect
      x="504"
      y="102"
      width="14"
      height="14"
      rx="3"
      fill="#2d333b"
    />
  
    <rect
      x="504"
      y="120"
      width="14"
      height="14"
      rx="3"
      fill="#2d333b"
    />
  
    <rect
      x="504"
      y="138"
      width="14"
      height="14"
      rx="3"
      fill="#2d333b"
    />
  
      <text x="522" y="20" fill="#adbac7" font-size="10">
        Aug
      </text>
    
    <rect
      x="522"
      y="30"
      width="14"
      height="14"
      rx="3"
      fill="#2d333b"
    />
  
    <rect
      x="522"
      y="48"
      width="14"
      height="14"
      rx="3"
      fill="#2d333b"
    />
  
    <rect
      x="522"
      y="66"
      width="14"
      height="14"
      rx="3"
      fill="#2d333b"
    />
  
    <rect
      x="522"
      y="84"
      width="14"
      height="14"
      rx="3"
      fill="#2d333b"
    />
  
    <rect
      x="522"
      y="102"
      width="14"
      height="14"
      rx="3"
      fill="#2d333b"
    />
  
    <rect
      x="522"
      y="120"
      width="14"
      height="14"
      rx="3"
      fill="#2d333b"
    />
  
    <rect
      x="522"
      y="138"
      width="14"
      height="14"
      rx="3"
      fill="#2d333b"
    />
  
    <rect
      x="540"
      y="30"
      width="14"
      height="14"
      rx="3"
      fill="#2d333b"
    />
  
    <rect
      x="540"
      y="48"
      width="14"
      height="14"
      rx="3"
      fill="#2d333b"
    />
  
    <rect
      x="540"
      y="66"
      width="14"
      height="14"
      rx="3"
      fill="#2d333b"
    />
  
    <rect
      x="540"
      y="84"
      width="14"
      height="14"
      rx="3"
      fill="#2d333b"
    />
  
    <rect
      x="540"
      y="102"
      width="14"
      height="14"
      rx="3"
      fill="#2d333b"
    />
  
    <rect
      x="540"
      y="120"
      width="14"
      height="14"
      rx="3"
      fill="#2d333b"
    />
  
    <rect
      x="540"
      y="138"
      width="14"
      height="14"
      rx="3"
      fill="#2d333b"
    />
  
    <rect
      x="558"
      y="30"
      width="14"
      height="14"
      rx="3"
      fill="#2d333b"
    />
  
    <rect
      x="558"
      y="48"
      width="14"
      height="14"
      rx="3"
      fill="#2d333b"
    />
  
    <rect
      x="558"
      y="66"
      width="14"
      height="14"
      rx="3"
      fill="#2d333b"
    />
  
    <rect
      x="558"
      y="84"
      width="14"
      height="14"
      rx="3"
      fill="#2d333b"
    />
  
    <rect
      x="558"
      y="102"
      width="14"
      height="14"
      rx="3"
      fill="#2d333b"
    />
  
    <rect
      x="558"
      y="120"
      width="14"
      height="14"
      rx="3"
      fill="#2d333b"
    />
  
    <rect
      x="558"
      y="138"
      width="14"
      height="14"
      rx="3"
      fill="#2d333b"
    />
  
    <rect
      x="576"
      y="30"
      width="14"
      height="14"
      rx="3"
      fill="#2d333b"
    />
  
    <rect
      x="576"
      y="48"
      width="14"
      height="14"
      rx="3"
      fill="#2d333b"
    />
  
    <rect
      x="576"
      y="66"
      width="14"
      height="14"
      rx="3"
      fill="#2d333b"
    />
  
    <rect
      x="576"
      y="84"
      width="14"
      height="14"
      rx="3"
      fill="#2d333b"
    />
  
    <rect
      x="576"
      y="102"
      width="14"
      height="14"
      rx="3"
      fill="#2d333b"
    />
  
    <rect
      x="576"
      y="120"
      width="14"
      height="14"
      rx="3"
      fill="#2d333b"
    />
  
    <rect
      x="576"
      y="138"
      width="14"
      height="14"
      rx="3"
      fill="#2d333b"
    />
  
    <rect
      x="594"
      y="30"
      width="14"
      height="14"
      rx="3"
      fill="#2d333b"
    />
  
    <rect
      x="594"
      y="48"
      width="14"
      height="14"
      rx="3"
      fill="#2d333b"
    />
  
    <rect
      x="594"
      y="66"
      width="14"
      height="14"
      rx="3"
      fill="#2d333b"
    />
  
    <rect
      x="594"
      y="84"
      width="14"
      height="14"
      rx="3"
      fill="#2d333b"
    />
  
    <rect
      x="594"
      y="102"
      width="14"
      height="14"
      rx="3"
      fill="#2d333b"
    />
  
    <rect
      x="594"
      y="120"
      width="14"
      height="14"
      rx="3"
      fill="#2d333b"
    />
  
    <rect
      x="594"
      y="138"
      width="14"
      height="14"
      rx="3"
      fill="#2d333b"
    />
  
      <text x="612" y="20" fill="#adbac7" font-size="10">
        Sep
      </text>
    
    <rect
      x="612"
      y="30"
      width="14"
      height="14"
      rx="3"
      fill="#2d333b"
    />
  
    <rect
      x="612"
      y="48"
      width="14"
      height="14"
      rx="3"
      fill="#2d333b"
    />
  
    <rect
      x="612"
      y="66"
      width="14"
      height="14"
      rx="3"
      fill="#2d333b"
    />
  
    <rect
      x="612"
      y="84"
      width="14"
      height="14"
      rx="3"
      fill="#2d333b"
    />
  
    <rect
      x="612"
      y="102"
      width="14"
      height="14"
      rx="3"
      fill="#2d333b"
    />
  
    <rect
      x="612"
      y="120"
      width="14"
      height="14"
      rx="3"
      fill="#2d333b"
    />
  
    <rect
      x="612"
      y="138"
      width="14"
      height="14"
      rx="3"
      fill="#2d333b"
    />
  
    <rect
      x="630"
      y="30"
      width="14"
      height="14"
      rx="3"
      fill="#2d333b"
    />
  
    <rect
      x="630"
      y="48"
      width="14"
      height="14"
      rx="3"
      fill="#2d333b"
    />
  
    <rect
      x="630"
      y="66"
      width="14"
      height="14"
      rx="3"
      fill="#2d333b"
    />
  
    <rect
      x="630"
      y="84"
      width="14"
      height="14"
      rx="3"
      fill="#2d333b"
    />
  
    <rect
      x="630"
      y="102"
      width="14"
      height="14"
      rx="3"
      fill="#2d333b"
    />
  
    <rect
      x="630"
      y="120"
      width="14"
      height="14"
      rx="3"
      fill="#2d333b"
    />
  
    <rect
      x="630"
      y="138"
      width="14"
      height="14"
      rx="3"
      fill="#2d333b"
    />
  
    <rect
      x="648"
      y="30"
      width="14"
      height="14"
      rx="3"
      fill="#2d333b"
    />
  
    <rect
      x="648"
      y="48"
      width="14"
      height="14"
      rx="3"
      fill="#2d333b"
    />
  
    <rect
      x="648"
      y="66"
      width="14"
      height="14"
      rx="3"
      fill="#2d333b"
    />
  
    <rect
      x="648"
      y="84"
      width="14"
      height="14"
      rx="3"
      fill="#2d333b"
    />
  
    <rect
      x="648"
      y="102"
      width="14"
      height="14"
      rx="3"
      fill="#2d333b"
    />
  
    <rect
      x="648"
      y="120"
      width="14"
      height="14"
      rx="3"
      fill="#2d333b"
    />
  
    <rect
      x="648"
      y="138"
      width="14"
      height="14"
      rx="3"
      fill="#2d333b"
    />
  
    <rect
      x="666"
      y="30"
      width="14"
      height="14"
      rx="3"
      fill="#2d333b"
    />
  
    <rect
      x="666"
      y="48"
      width="14"
      height="14"
      rx="3"
      fill="#2d333b"
    />
  
    <rect
      x="666"
      y="66"
      width="14"
      height="14"
      rx="3"
      fill="#2d333b"
    />
  
    <rect
      x="666"
      y="84"
      width="14"
      height="14"
      rx="3"
      fill="#2d333b"
    />
  
    <rect
      x="666"
      y="102"
      width="14"
      height="14"
      rx="3"
      fill="#2d333b"
    />
  
    <rect
      x="666"
      y="120"
      width="14"
      height="14"
      rx="3"
      fill="#2d333b"
    />
  
    <rect
      x="666"
      y="138"
      width="14"
      height="14"
      rx="3"
      fill="#2d333b"
    />
  
      <text x="684" y="20" fill="#adbac7" font-size="10">
        Oct
      </text>
    
    <rect
      x="684"
      y="30"
      width="14"
      height="14"
      rx="3"
      fill="#2d333b"
    />
  
    <rect
      x="684"
      y="48"
      width="14"
      height="14"
      rx="3"
      fill="#2d333b"
    />
  
    <rect
      x="684"
      y="66"
      width="14"
      height="14"
      rx="3"
      fill="#2d333b"
    />
  
    <rect
      x="684"
      y="84"
      width="14"
      height="14"
      rx="3"
      fill="#2d333b"
    />
  
    <rect
      x="684"
      y="102"
      width="14"
      height="14"
      rx="3"
      fill="#2d333b"
    />
  
    <rect
      x="684"
      y="120"
      width="14"
      height="14"
      rx="3"
      fill="#2d333b"
    />
  
    <rect
      x="684"
      y="138"
      width="14"
      height="14"
      rx="3"
      fill="#2d333b"
    />
  
    <rect
      x="702"
      y="30"
      width="14"
      height="14"
      rx="3"
      fill="#2d333b"
    />
  
    <rect
      x="702"
      y="48"
      width="14"
      height="14"
      rx="3"
      fill="#2d333b"
    />
  
    <rect
      x="702"
      y="66"
      width="14"
      height="14"
      rx="3"
      fill="#2d333b"
    />
  
    <rect
      x="702"
      y="84"
      width="14"
      height="14"
      rx="3"
      fill="#2d333b"
    />
  
    <rect
      x="702"
      y="102"
      width="14"
      height="14"
      rx="3"
      fill="#2d333b"
    />
  
    <rect
      x="702"
      y="120"
      width="14"
      height="14"
      rx="3"
      fill="#2d333b"
    />
  
    <rect
      x="702"
      y="138"
      width="14"
      height="14"
      rx="3"
      fill="#2d333b"
    />
  
    <rect
      x="720"
      y="30"
      width="14"
      height="14"
      rx="3"
      fill="#2d333b"
    />
  
    <rect
      x="720"
      y="48"
      width="14"
      height="14"
      rx="3"
      fill="#2d333b"
    />
  
    <rect
      x="720"
      y="66"
      width="14"
      height="14"
      rx="3"
      fill="#2d333b"
    />
  
    <rect
      x="720"
      y="84"
      width="14"
      height="14"
      rx="3"
      fill="#2d333b"
    />
  
    <rect
      x="720"
      y="102"
      width="14"
      height="14"
      rx="3"
      fill="#2d333b"
    />
  
    <rect
      x="720"
      y="120"
      width="14"
      height="14"
      rx="3"
      fill="#2d333b"
    />
  
    <rect
      x="720"
      y="138"
      width="14"
      height="14"
      rx="3"
      fill="#2d333b"
    />
  
    <rect
      x="738"
      y="30"
      width="14"
      height="14"
      rx="3"
      fill="#2d333b"
    />
  
    <rect
      x="738"
      y="48"
      width="14"
      height="14"
      rx="3"
      fill="#2d333b"
    />
  
    <rect
      x="738"
      y="66"
      width="14"
      height="14"
      rx="3"
      fill="#2d333b"
    />
  
    <rect
      x="738"
      y="84"
      width="14"
      height="14"
      rx="3"
      fill="#2d333b"
    />
  
    <rect
      x="738"
      y="102"
      width="14"
      height="14"
      rx="3"
      fill="#2d333b"
    />
  
    <rect
      x="738"
      y="120"
      width="14"
      height="14"
      rx="3"
      fill="#2d333b"
    />
  
    <rect
      x="738"
      y="138"
      width="14"
      height="14"
      rx="3"
      fill="#2d333b"
    />
  
      <text x="756" y="20" fill="#adbac7" font-size="10">
        Nov
      </text>
    
    <rect
      x="756"
      y="30"
      width="14"
      height="14"
      rx="3"
      fill="#2d333b"
    />
  
    <rect
      x="756"
      y="48"
      width="14"
      height="14"
      rx="3"
      fill="#2d333b"
    />
  
    <rect
      x="756"
      y="66"
      width="14"
      height="14"
      rx="3"
      fill="#2d333b"
    />
  
    <rect
      x="756"
      y="84"
      width="14"
      height="14"
      rx="3"
      fill="#2d333b"
    />
  
    <rect
      x="756"
      y="102"
      width="14"
      height="14"
      rx="3"
      fill="#2d333b"
    />
  
    <rect
      x="756"
      y="120"
      width="14"
      height="14"
      rx="3"
      fill="#2d333b"
    />
  
    <rect
      x="756"
      y="138"
      width="14"
      height="14"
      rx="3"
      fill="#2d333b"
    />
  
    <rect
      x="774"
      y="30"
      width="14"
      height="14"
      rx="3"
      fill="#2d333b"
    />
  
    <rect
      x="774"
      y="48"
      width="14"
      height="14"
      rx="3"
      fill="#2d333b"
    />
  
    <rect
      x="774"
      y="66"
      width="14"
      height="14"
      rx="3"
      fill="#2d333b"
    />
  
    <rect
      x="774"
      y="84"
      width="14"
      height="14"
      rx="3"
      fill="#2d333b"
    />
  
    <rect
      x="774"
      y="102"
      width="14"
      height="14"
      rx="3"
      fill="#2d333b"
    />
  
    <rect
      x="774"
      y="120"
      width="14"
      height="14"
      rx="3"
      fill="#2d333b"
    />
  
    <rect
      x="774"
      y="138"
      width="14"
      height="14"
      rx="3"
      fill="#2d333b"
    />
  
    <rect
      x="792"
      y="30"
      width="14"
      height="14"
      rx="3"
      fill="#2d333b"
    />
  
    <rect
      x="792"
      y="48"
      width="14"
      height="14"
      rx="3"
      fill="#2d333b"
    />
  
    <rect
      x="792"
      y="66"
      width="14"
      height="14"
      rx="3"
      fill="#2d333b"
    />
  
    <rect
      x="792"
      y="84"
      width="14"
      height="14"
      rx="3"
      fill="#2d333b"
    />
  
    <rect
      x="792"
      y="102"
      width="14"
      height="14"
      rx="3"
      fill="#2d333b"
    />
  
    <rect
      x="792"
      y="120"
      width="14"
      height="14"
      rx="3"
      fill="#2d333b"
    />
  
    <rect
      x="792"
      y="138"
      width="14"
      height="14"
      rx="3"
      fill="#2d333b"
    />
  
    <rect
      x="810"
      y="30"
      width="14"
      height="14"
      rx="3"
      fill="#2d333b"
    />
  
    <rect
      x="810"
      y="48"
      width="14"
      height="14"
      rx="3"
      fill="#2d333b"
    />
  
    <rect
      x="810"
      y="66"
      width="14"
      height="14"
      rx="3"
      fill="#2d333b"
    />
  
    <rect
      x="810"
      y="84"
      width="14"
      height="14"
      rx="3"
      fill="#2d333b"
    />
  
    <rect
      x="810"
      y="102"
      width="14"
      height="14"
      rx="3"
      fill="#2d333b"
    />
  
    <rect
      x="810"
      y="120"
      width="14"
      height="14"
      rx="3"
      fill="#2d333b"
    />
  
    <rect
      x="810"
      y="138"
      width="14"
      height="14"
      rx="3"
      fill="#2d333b"
    />
  
    <rect
      x="828"
      y="30"
      width="14"
      height="14"
      rx="3"
      fill="#2d333b"
    />
  
    <rect
      x="828"
      y="48"
      width="14"
      height="14"
      rx="3"
      fill="#2d333b"
    />
  
    <rect
      x="828"
      y="66"
      width="14"
      height="14"
      rx="3"
      fill="#2d333b"
    />
  
    <rect
      x="828"
      y="84"
      width="14"
      height="14"
      rx="3"
      fill="#2d333b"
    />
  
    <rect
      x="828"
      y="102"
      width="14"
      height="14"
      rx="3"
      fill="#2d333b"
    />
  
    <rect
      x="828"
      y="120"
      width="14"
      height="14"
      rx="3"
      fill="#2d333b"
    />
  
    <rect
      x="828"
      y="138"
      width="14"
      height="14"
      rx="3"
      fill="#2d333b"
    />
  
      <text x="846" y="20" fill="#adbac7" font-size="10">
        Dec
      </text>
    
    <rect
      x="846"
      y="30"
      width="14"
      height="14"
      rx="3"
      fill="#2d333b"
    />
  
    <rect
      x="846"
      y="48"
      width="14"
      height="14"
      rx="3"
      fill="#2d333b"
    />
  
    <rect
      x="846"
      y="66"
      width="14"
      height="14"
      rx="3"
      fill="#2d333b"
    />
  
    <rect
      x="846"
      y="84"
      width="14"
      height="14"
      rx="3"
      fill="#2d333b"
    />
  
    <rect
      x="846"
      y="102"
      width="14"
      height="14"
      rx="3"
      fill="#2d333b"
    />
  
    <rect
      x="846"
      y="120"
      width="14"
      height="14"
      rx="3"
      fill="#2d333b"
    />
  
    <rect
      x="846"
      y="138"
      width="14"
      height="14"
      rx="3"
      fill="#2d333b"
    />
  
    <rect
      x="864"
      y="30"
      width="14"
      height="14"
      rx="3"
      fill="#2d333b"
    />
  
    <rect
      x="864"
      y="48"
      width="14"
      height="14"
      rx="3"
      fill="#2d333b"
    />
  
    <rect
      x="864"
      y="66"
      width="14"
      height="14"
      rx="3"
      fill="#2d333b"
    />
  
    <rect
      x="864"
      y="84"
      width="14"
      height="14"
      rx="3"
      fill="#2d333b"
    />
  
    <rect
      x="864"
      y="102"
      width="14"
      height="14"
      rx="3"
      fill="#2d333b"
    />
  
    <rect
      x="864"
      y="120"
      width="14"
      height="14"
      rx="3"
      fill="#2d333b"
    />
  
    <rect
      x="864"
      y="138"
      width="14"
      height="14"
      rx="3"
      fill="#2d333b"
    />
  
    <rect
      x="882"
      y="30"
      width="14"
      height="14"
      rx="3"
      fill="#2d333b"
    />
  
    <rect
      x="882"
      y="48"
      width="14"
      height="14"
      rx="3"
      fill="#2d333b"
    />
  
    <rect
      x="882"
      y="66"
      width="14"
      height="14"
      rx="3"
      fill="#2d333b"
    />
  
    <rect
      x="882"
      y="84"
      width="14"
      height="14"
      rx="3"
      fill="#2d333b"
    />
  
    <rect
      x="882"
      y="102"
      width="14"
      height="14"
      rx="3"
      fill="#2d333b"
    />
  
    <rect
      x="882"
      y="120"
      width="14"
      height="14"
      rx="3"
      fill="#2d333b"
    />
  
    <rect
      x="882"
      y="138"
      width="14"
      height="14"
      rx="3"
      fill="#2d333b"
    />
  
    <rect
      x="900"
      y="30"
      width="14"
      height="14"
      rx="3"
      fill="#2d333b"
    />
  
    <rect
      x="900"
      y="48"
      width="14"
      height="14"
      rx="3"
      fill="#2d333b"
    />
  
    <rect
      x="900"
      y="66"
      width="14"
      height="14"
      rx="3"
      fill="#2d333b"
    />
  
    <rect
      x="900"
      y="84"
      width="14"
      height="14"
      rx="3"
      fill="#2d333b"
    />
  </svg>